<?xml version="1.0" encoding="utf-8"?>
<!-- Generator: Adobe Illustrator 27.0.1, SVG Export Plug-In . SVG Version: 6.00 Build 0)  -->
<svg version="1.1"
	 id="svg64" xmlns:sodipodi="http://sodipodi.sourceforge.net/DTD/sodipodi-0.dtd" xmlns:svg="http://www.w3.org/2000/svg" xmlns:cc="http://creativecommons.org/ns#" xmlns:dc="http://purl.org/dc/elements/1.1/" xmlns:rdf="http://www.w3.org/1999/02/22-rdf-syntax-ns#" xmlns:inkscape="http://www.inkscape.org/namespaces/inkscape" inkscape:version="1.0.2 (e86c870879, 2021-01-15, custom)"
	 xmlns="http://www.w3.org/2000/svg" xmlns:xlink="http://www.w3.org/1999/xlink" x="0px" y="0px" viewBox="0 0 439.9 228.5"
	 style="enable-background:new 0 0 439.9 228.5;" xml:space="preserve">
<style type="text/css">
	.st0{fill:#E07A5F;}
	.st1{fill:#ECE6E2;}
	.st2{fill:#525893;}
	.st3{fill:#87C2A5;}
</style>
<sodipodi:namedview  bordercolor="#666666" borderopacity="1.0" fit-margin-bottom="0" fit-margin-left="0" fit-margin-right="0" fit-margin-top="0" id="base" inkscape:current-layer="g86" inkscape:cx="329.94865" inkscape:cy="24.575193" inkscape:document-rotation="0" inkscape:document-units="mm" inkscape:pageopacity="0.0" inkscape:pageshadow="2" inkscape:snap-page="false" inkscape:window-height="1588" inkscape:window-maximized="0" inkscape:window-width="2529" inkscape:window-x="299" inkscape:window-y="228" inkscape:zoom="1.5480095" pagecolor="#ffffff" showgrid="false">
	</sodipodi:namedview>
<g>
	<path id="path34" inkscape:connector-curvature="0" class="st0" d="M331.3,167.9h-66.8l33.4-57.8L331.3,167.9z"/>
	<path id="path1500" inkscape:connector-curvature="0" class="st1" d="M171.2,106.5L144.5,43c-1.1-2.8-1.1-2.8-5-2.8h-25.8
		c-2.6,0-4.6,0-4.6,2.4c0,2.4,2.4,2.4,3.1,2.4c1.8,0,5.5,0.4,8.5,1.5V121c0,3.1,0,9.2-9.4,10.1c-2.6,0.2-2.6,2.2-2.6,2.4
		c0,2.4,2.2,2.4,4.8,2.4h21.5c2.6,0,4.6,0,4.6-2.4c0-1.3-1.1-2.4-2.2-2.4c-10.7-0.9-10.7-6.8-10.7-10.1V51.6l0.2-0.2l33.9,81.7
		c1.3,2.4,2.2,2.8,3.1,2.8c1.8,0,2-1.1,2.8-2.8l34.2-81.7l0.2,0.2V121c0,3.1,0,9.2-9.6,10.1c-2.6,0.2-2.6,2.2-2.6,2.4
		c0,2.4,2.2,2.4,4.8,2.4h37.2c2.6,0,4.6,0,4.6-2.4c0-1.3-1.1-2.4-2.2-2.4c-10.7-0.9-10.7-6.8-10.7-10.1V55.1c0-3.1,0-9.2,9.4-10.1
		c1.5,0,2.6-0.9,2.6-2.4c0-2.4-2-2.4-4.6-2.4H203c-3.5,0-3.9,0-5,2.8L171.2,106.5z M167.1,109.1c1.1,2.2,1.3,2.4,3.1,3.1l-6.3,14.7
		h-0.2l-31.7-76c-0.7-1.8-2-4.2-3.7-5.9h12L167.1,109.1z M205.8,45h14.9c-3.3,3.5-3.3,7.2-3.3,9.6v66.8c0,2.4,0,6.1,3.3,9.6h-18
		c3.1-3.5,3.1-7.2,3.1-9.6V45z"/>
	<g>
		<path class="st2" d="M238.5,171.6c0.8,7.6,14.4,13.7,31.1,13.7c16.7,0,30.3-6.1,31.1-13.7c-3.9,6.5-16.2,11.2-31.1,11.2
			C254.6,182.8,242.3,178.2,238.5,171.6z"/>
		<path class="st2" d="M264.2,151.8c-14.6,1.2-25.8,7.1-25.8,14.2c0,7.9,13.9,14.4,31.1,14.4c17.2,0,31.1-6.4,31.1-14.4
			c0-7.1-11.1-13-25.8-14.2v9.7h-1.2v-19.5c-0.1,0-0.3,0.1-0.4,0.1c-0.9,0.2-1.8,0.4-2.6,0.6c-1.7,0.3-3.5,0.4-5.1,0.5
			c-0.1,0-0.1,0-0.2,0v18.3h-1.2C264.2,161.4,264.2,151.8,264.2,151.8L264.2,151.8z"/>
		<path class="st2" d="M240,51.9c-9.7,5.6-15.8,14.4-12.4,25l13.2,40.9c1.3,4,3.7,7.2,6.8,9.6l1,2.8l2.1,6.2l1.1,3.1l3.1,0.6
			c1.6,0.2,3.1,0.4,4.7,0.5c1.6,0.1,3.2,0.1,4.8,0.1c1.6-0.1,3.3-0.2,4.9-0.5c0.8-0.1,1.7-0.3,2.5-0.5c0.8-0.2,1.7-0.5,2.5-0.8
			c0.8-0.3,1.6-0.6,2.4-1c0.8-0.4,1.6-0.8,2.3-1.3c1.5-1,5-3.8,6.1-5.2c4.9-5.7,5.3-8.1,5.3-8.2c-5.1,3.9-14.7,7.1-30.3,6.7
			l-12.2-35.2c-1-2.9-4.2-4.5-7.1-3.4c-2.1,0.7-3.5,2.6-3.7,4.7c-0.1-1.2,0.1-2.5,0.6-3.6c0.8-1.6,2.2-2.9,3.9-3.5
			c0.7-0.3,1.5-0.4,2.2-0.4c2,0,3.8,0.9,5.1,2.3c0.3-0.4,0.8-0.7,1.3-0.8c9-2.2,16.9-4.2,23.3-5.9l1.5,4.7c-6.5,1.7-14.5,3.8-23.7,6
			c-0.2,0-0.3,0.1-0.5,0.1l0.7,2c0.2-0.1,0.3-0.1,0.5-0.2c9.4-1.6,17.4-3.5,23.8-5.3l1.5,4.8c-6.5,1.8-14.6,3.8-24.2,5.4l0.7,1.9
			c0,0,0.1,0,0.1,0c9.8-1,17.9-2.8,24.2-4.7l1.5,4.8c-6.4,1.9-14.4,3.7-24.2,4.8l0.7,1.9c10.1-0.4,18.1-2.2,24.3-4.2l1.5,4.8
			c-6.3,2-14.3,3.7-24.2,4.3l0.7,1.9c10.2,0.1,18.3-1.5,24.3-3.6l1.5,4.5c0,0.1,0.1,0.1,0.1,0.2c-5.9,2-13.3,3.6-22.7,3.8
			c-0.5,0-1,0-1.5,0l1.9,5.4c0.5,0,1,0,1.5,0c10.2,0,18.7-1.7,24.4-4.8c0.3-0.2,0.6-0.5,1-0.7c2.8-2.3,4.9-5.4,6.1-8.8
			c-1.7,1-3.7,2.2-6.2,3.2l-1.5-4.8c4.4-2,7.3-4.1,8.9-5.4c0-0.6,0-1.2-0.1-1.7c-2.1,1.3-5.3,3-9.5,4.7l-1.5-4.8c5-2,8.3-4,9.9-5.1
			l-0.5-1.6c-2.2,1.1-5.6,2.7-10.1,4.3l-1.5-4.8c4.8-1.7,8.2-3.3,10.1-4.3l-0.6-1.7c-2.2,0.9-5.7,2.2-10.3,3.6l-1.5-4.8
			c4.7-1.5,8.2-2.7,10.3-3.6l-0.6-1.8c-2.3,0.7-5.9,1.7-10.5,2.9l-1.5-4.7c4.6-1.2,8.2-2.3,10.5-2.9l-0.6-1.8
			c-2.4,0.5-6,1.2-10.7,2.3l-1.5-4.7c4.6-1.1,8.2-1.8,10.7-2.3l-0.6-1.8c-2.5,0.3-6.2,0.7-10.9,1.7l-1.5-4.8
			c4.5-0.9,8.2-1.4,10.9-1.7l-0.6-1.8c-2.5,0.1-6.4,0.3-11.1,1l-1.5-4.8c4.5-0.8,8.2-1.1,11-1.2l-0.2-0.6c-0.1-0.4-0.3-0.8-0.4-1.2
			c-2.6-0.1-6.5-0.1-11.2,0.5l-1.5-4.8c0,0,0,0,0-0.1c3.8-0.5,7.1-0.7,9.9-0.7c-5-6.4-14.5-7.7-22-6.7
			C249.6,47.2,244.8,49.1,240,51.9L240,51.9z M246.8,86.3c-0.4-1.3,0.3-2.7,1.6-3.1c8.6-2.7,16.4-4.9,22.9-6.5l1.5,4.7
			c-6.4,1.6-14.2,3.7-22.9,6.5c-0.2,0.1-0.5,0.1-0.7,0.1C248.2,88,247.1,87.3,246.8,86.3L246.8,86.3z M245.1,79.7
			c-0.5-1.3,0.1-2.7,1.4-3.2c8.3-3.3,16-5.6,22.4-7.1l1.5,4.8c-6.4,1.5-13.9,3.7-22.1,7c-0.3,0.1-0.6,0.2-0.9,0.2
			C246.5,81.2,245.5,80.6,245.1,79.7L245.1,79.7z M243.5,73c-0.6-1.2-0.1-2.7,1.1-3.3c7.9-3.9,15.5-6.3,22-7.8l1.5,4.8
			c-6.3,1.4-13.6,3.6-21.3,7.4c-0.3,0.2-0.7,0.3-1,0.3C244.8,74.4,243.9,73.9,243.5,73L243.5,73z M241.9,66.4
			c-0.7-1.2-0.3-2.7,0.9-3.4c7.6-4.5,15.1-7.1,21.6-8.5c0,0.2,0,0.5,0.1,0.7l1.3,4.1c-6.2,1.3-13.3,3.6-20.5,7.9
			c-0.4,0.2-0.8,0.3-1.2,0.4C243.2,67.7,242.3,67.2,241.9,66.4L241.9,66.4z"/>
	</g>
	<circle id="circle38" class="st3" cx="220.1" cy="148.8" r="39.5"/>
</g>
</svg>
